<svg width="42" height="25" viewBox="0 0 42 25" fill="none" xmlns="http://www.w3.org/2000/svg">
<path d="M5.32441 0V5.43807H7.71441V11.0586H5.32441C5.32441 12.1893 5.50089 12.967 5.85685 13.3918C6.21281 13.8195 6.8649 14.0319 7.81312 14.0319V19.6255C7.53793 19.6345 7.33452 19.6405 7.19991 19.6405C5.99444 19.6405 4.85777 19.3623 3.7899 18.7999C2.72203 18.2406 1.86653 17.4808 1.22043 16.5236C0.406809 15.3002 0 13.6789 0 11.6569V0H5.32441Z" fill="#005C97"/>
<path d="M18.2166 14.1037V19.6106C17.7799 19.6853 17.3821 19.7242 17.0202 19.7242C14.8844 19.7242 13.1046 19.0213 11.6838 17.6184C10.2629 16.2155 9.54803 14.4537 9.54803 12.3389C9.54803 10.2241 10.2659 8.53401 11.7047 7.1012C13.1435 5.6684 14.8904 4.95349 16.9484 4.95349C19.2456 4.95349 21.0553 5.62353 22.3775 6.9666C23.6996 8.30966 24.3636 10.1433 24.3636 12.4675V19.4281H19.0392V12.8534C19.0392 12.1026 18.8568 11.5073 18.4918 11.0586C18.1269 10.6129 17.6363 10.3886 17.0202 10.3886C16.4608 10.3886 15.9762 10.592 15.5694 11.0018C15.1626 11.4086 14.9562 11.8932 14.9562 12.4525C14.9562 13.0418 15.1417 13.5234 15.5126 13.9033C15.8835 14.2832 16.3531 14.4716 16.9214 14.4716C17.3851 14.4716 17.8188 14.349 18.2166 14.1007" fill="#005C97"/>
<path d="M32.4789 24.6807H27.1545V12.8384C27.1545 10.6668 27.7228 8.89595 28.8625 7.52895C29.5176 6.74225 30.3491 6.11409 31.3602 5.65045C32.3712 5.18681 33.4062 4.95349 34.4711 4.95349C36.5859 4.95349 38.3716 5.66541 39.8224 7.08924C41.2731 8.51307 42 10.26 42 12.3269C42 14.3938 41.2791 16.0749 39.8373 17.5346C38.3956 18.9974 36.6876 19.7272 34.7133 19.7272C34.3903 19.7272 33.9147 19.6943 33.2895 19.6285V13.7657C33.7262 14.1157 34.163 14.2921 34.5997 14.2921C35.1501 14.2921 35.6227 14.0887 36.0175 13.6789C36.4094 13.2721 36.6068 12.7875 36.6068 12.2282C36.6068 11.6688 36.4034 11.1902 35.9936 10.7984C35.5868 10.4035 35.0962 10.2061 34.5279 10.2061C33.1609 10.2061 32.4789 11.1513 32.4789 13.0388V24.6807Z" fill="#005C97"/>
</svg>
